#!OML:ASF I:\golf\golf\golf 2\Subject 1\2002-09-07\Subject1.ASF
:FULLY-SPECIFIED
:DEGREES
392
root -5.00544 18.0255 -3.86871 -167.714 -7.10318 -172.834
lowerback -13.6294 16.1645 11.6274
upperback -16.1814 17.5158 -0.813466
thorax -6.73186 6.37142 -4.83489
lowerneck -9.08708 -19.9151 -5.18033
upperneck 13.565 -27.6418 3.94162
head 6.83997 -13.5531 -0.642701
rclavicle 6.50523e-014 5.69518e-014
rhumerus 106.909 24.0785 -54.6121
rradius 75.6612
rwrist 8.35757
rhand -51.6232 33.1677
rfingers 7.12502
rthumb -24.1463 4.66739
lclavicle 6.50523e-014 5.69518e-014
lhumerus 71.6445 25.8999 55.9585
lradius 77.7891
lwrist 13.2375
lhand -29.6324 8.14573
lfingers 7.12502
lthumb -182.962 -141.895
rfemur 17.2304 -8.36333 26.1972
rtibia 10.7355
rfoot 39.3656 -34.2606
rtoes 27.7964
lfemur -27.0108 -19.9061 -10.6191
ltibia 28.9398
lfoot 24.277 -45.6775
ltoes 50.0955
393
root -4.99894 18.0273 -3.86176 -167.649 -7.06749 -172.693
lowerback -13.5863 16.0702 11.7787
upperback -16.0611 17.3991 -0.684582
thorax -6.63505 6.32141 -4.7907
lowerneck -9.74493 -19.7944 -5.22857
upperneck 14.0516 -27.46 3.84638
head 7.0898 -13.4356 -0.746287
rclavicle 2.07233e-014 -4.22417e-014
rhumerus 106.771 23.9607 -54.6151
rradius 75.3783
rwrist 7.69244
rhand -51.4673 32.9113
rfingers 7.12502
rthumb -23.9968 4.39124
lclavicle 2.07233e-014 -4.22417e-014
lhumerus 71.4806 25.9376 55.4043
lradius 77.0879
lwrist 13.4141
lhand -29.2938 8.17323
lfingers 7.12502
lthumb -182.635 -141.863
rfemur 17.1338 -8.2814 26.3391
rtibia 10.7284
rfoot 39.2873 -34.4056
rtoes 28.3692
lfemur -27.0762 -19.7781 -10.4086
ltibia 28.8452
lfoot 24.4022 -45.7229
ltoes 50.2638
394
root -4.99186 18.0318 -3.85512 -167.46 -6.98268 -172.823
lowerback -13.5571 15.9692 11.6527
upperback -16.0269 17.2889 -0.677259
thorax -6.65896 6.27965 -4.75253
lowerneck -10.1874 -19.653 -5.27966
upperneck 14.4324 -27.2589 3.78447
head 7.27616 -13.3187 -0.807245
rclavicle 7.97375e-014 6.24184e-014
rhumerus 106.662 23.9138 -54.854
rradius 74.7239
rwrist 7.04105
rhand -51.2142 33.4391
rfingers 7.12502
rthumb -23.754 4.88725
lclavicle 7.97375e-014 6.24184e-014
lhumerus 71.2897 25.7989 54.8825
lradius 76.4173
lwrist 13.6448
lhand -28.6985 7.95242
lfingers 7.12502
lthumb -182.06 -142.078
rfemur 16.9527 -8.30339 26.1629
rtibia 10.7347
rfoot 39.1067 -34.6245
rtoes 29.2559
lfemur -27.2245 -19.636 -10.4806
ltibia 28.7281
lfoot 24.3987 -45.8167
ltoes 50.1258
395
root -4.98707 18.0392 -3.84867 -167.213 -6.81843 -172.995
lowerback -13.5557 15.9398 11.5001
upperback -16.0214 17.2646 -0.724173
thorax -6.67838 6.27789 -4.73651
lowerneck -10.3908 -19.5626 -5.35621
upperneck 14.5752 -27.1322 3.82719
head 7.36771 -13.2448 -0.805498
rclavicle -1.25508e-013 -5.60076e-014
rhumerus 106.374 23.7327 -55.0184
rradius 74.1546
rwrist 6.4339
rhand -51.1083 33.8986
rfingers 7.12502
rthumb -23.6525 5.33366
lclavicle -1.25508e-013 -5.60076e-014
lhumerus 71.0729 25.5403 54.2818
lradius 75.7461
lwrist 14.0182
lhand -28.0607 7.78905
lfingers 7.12502
lthumb -181.445 -142.236
rfemur 16.7249 -8.28484 25.9132
rtibia 10.7436
rfoot 39.1653 -34.3257
rtoes 29.4349
lfemur -27.412 -19.5485 -10.5835
ltibia 28.5866
lfoot 24.4006 -45.7349
ltoes 50.0319
396
root -4.98323 18.0442 -3.84164 -167.074 -6.66216 -173.003
lowerback -13.4974 15.9145 11.5317
upperback -15.9817 17.2422 -0.691939
thorax -6.66752 6.26785 -4.7306
lowerneck -10.696 -19.3404 -5.77613
upperneck 14.9569 -26.9065 4.30001
head 7.66077 -13.094 -0.676265
rclavicle -5.53118e-014 -3.71479e-014
rhumerus 105.773 23.4551 -55.0224
rradius 73.9822
rwrist 5.88446
rhand -50.7634 33.7482
rfingers 7.12502
rthumb -23.3216 5.14084
lclavicle -5.53118e-014 -3.71479e-014
lhumerus 70.8671 25.3382 53.6078
lradius 74.9375
lwrist 14.4762
lhand -27.4282 7.65987
lfingers 7.12502
lthumb -180.834 -142.362
rfemur 16.5667 -8.16288 25.8687
rtibia 10.7791
rfoot 39.5394 -33.5107
rtoes 28.4058
lfemur -27.479 -19.5161 -10.5255
ltibia 28.4225
lfoot 24.4737 -45.4917
ltoes 50.1299
397
root -4.97753 18.0475 -3.83487 -166.987 -6.49076 -173.003
lowerback -13.3957 15.8809 11.5851
upperback -15.9438 17.2174 -0.666441
thorax -6.67373 6.25456 -4.75174
lowerneck -10.7707 -19.1878 -6.47392
upperneck 15.2178 -26.7769 4.95606
head 7.94423 -12.9958 -0.450027
rclavicle 5.66878e-014 4.22107e-014
rhumerus 105.231 24.0117 -55.7839
rradius 73.4737
rwrist 6.04529
rhand -49.9901 33.4399
rfingers 7.12502
rthumb -22.5796 4.74036
lclavicle 5.66878e-014 4.22107e-014
lhumerus 70.7924 25.0289 53.1784
lradius 74.0583
lwrist 14.7827
lhand -26.7536 7.50712
lfingers 7.12502
lthumb -180.182 -142.513
rfemur 16.5052 -8.04462 25.8338
rtibia 10.732
rfoot 39.9875 -32.7147
rtoes 27.0895
lfemur -27.4751 -19.3963 -10.5098
ltibia 28.2778
lfoot 24.4063 -45.4116
ltoes 50.0639
398
root -4.97149 18.051 -3.8286 -166.842 -6.28646 -173.031
lowerback -13.3776 15.8735 11.598
upperback -15.9241 17.208 -0.67318
thorax -6.6554 6.24871 -4.76716
lowerneck -10.6854 -19.2502 -6.27004
upperneck 14.9767 -26.7501 4.55753
head 7.76163 -13.0123 -0.544046
rclavicle -1.45454e-014 -3.37903e-014
rhumerus 104.758 24.0565 -56.0403
rradius 73.083
rwrist 5.68415
rhand -50.1593 32.7082
rfingers 7.12502
rthumb -22.742 4.02852
lclavicle -1.45454e-014 -3.37903e-014
lhumerus 70.7936 24.544 53.1831
lradius 73.2548
lwrist 14.8429
lhand -26.0027 7.54164
lfingers 7.12502
lthumb -179.457 -142.479
rfemur 16.4787 -8.0046 25.7296
rtibia 10.5307
rfoot 40.4738 -31.971
rtoes 25.9469
lfemur -27.5491 -19.2088 -10.5279
ltibia 28.1568
lfoot 24.357 -45.4075
ltoes 50.0328
399
root -4.96432 18.0532 -3.81894 -166.753 -6.15686 -173.07
lowerback -13.3321 15.7962 11.61
upperback -15.8568 17.1207 -0.622843
thorax -6.62582 6.21372 -4.74109
lowerneck -10.8181 -19.2032 -5.87421
upperneck 14.9438 -26.6111 4.08775
head 7.64436 -12.9625 -0.695055
rclavicle 1.28303e-013 5.63058e-014
rhumerus 104.42 23.9692 -56.1863
rradius 72.5998
rwrist 4.9591
rhand -50.0567 32.5293
rfingers 7.12502
rthumb -22.6435 3.83759
lclavicle 1.28303e-013 5.63058e-014
lhumerus 70.3436 24.4391 51.9844
lradius 72.5305
lwrist 15.7157
lhand -25.6931 7.90267
lfingers 7.12502
lthumb -179.158 -142.119
rfemur 16.528 -7.92542 25.6759
rtibia 10.3038
rfoot 40.7533 -31.6184
rtoes 25.461
lfemur -27.583 -19.1056 -10.5248
ltibia 28.0125
lfoot 24.4953 -45.3048
ltoes 50.181
400
root -4.95728 18.0568 -3.80628 -166.738 -6.06329 -173.211
lowerback -13.1217 15.6574 11.583
upperback -15.7758 17.0036 -0.597244
thorax -6.67113 6.17064 -4.76492
lowerneck -11.1004 -19.1358 -5.33662
upperneck 14.9384 -26.4077 3.41624
head 7.51161 -12.8854 -0.920862
rclavicle -1.76421e-014 -5.47652e-014
rhumerus 104.053 23.9439 -56.4518
rradius 72.0623
rwrist 4.02607
rhand -49.2608 32.861
rfingers 7.12502
rthumb -21.8794 4.07803
lclavicle -1.76421e-014 -5.47652e-014
lhumerus 70.0424 24.2203 51.0602
lradius 71.7373
lwrist 16.4291
lhand -25.3567 7.79127
lfingers 7.12502
lthumb -178.833 -142.232
rfemur 16.6298 -7.7308 25.5833
rtibia 10.131
rfoot 40.6301 -31.9261
rtoes 25.7072
lfemur -27.5209 -19.0672 -10.6449
ltibia 27.8494
lfoot 24.5175 -45.2652
ltoes 50.2002
401
root -4.94902 18.0635 -3.7945 -166.635 -5.91542 -173.362
lowerback -12.9638 15.5548 11.4897
upperback -15.7342 16.9199 -0.59629
thorax -6.73876 6.14087 -4.76941
lowerneck -11.3176 -19.0527 -4.64801
upperneck 14.7563 -26.1618 2.61976
head 7.27376 -12.7982 -1.16925
rclavicle 8.24459e-014 5.99336e-014
rhumerus 103.654 23.9521 -56.6178
rradius 71.5374
rwrist 3.18467
rhand -48.855 32.4268
rfingers 7.12502
rthumb -21.4897 3.59888
lclavicle 8.24459e-014 5.99336e-014
lhumerus 69.947 23.8168 50.6945
lradius 70.8271
lwrist 16.7128
lhand -24.8251 7.58694
lfingers 7.12502
lthumb -178.319 -142.44
rfemur 16.6277 -7.74673 25.4169
rtibia 9.98406
rfoot 40.1362 -32.3417
rtoes 26.4759
lfemur -27.5444 -18.9733 -10.7597
ltibia 27.6734
lfoot 24.435 -45.2673
ltoes 49.9772
402
root -4.93852 18.0689 -3.78298 -166.44 -5.74284 -173.35
lowerback -12.9817 15.5135 11.4688
upperback -15.6795 16.8635 -0.537222
thorax -6.6974 6.12086 -4.70025
lowerneck -11.4812 -18.9111 -4.29281
upperneck 14.4979 -25.8555 2.16787
head 7.09623 -12.6679 -1.28108
rclavicle 3.47376e-014 4.52235e-014
rhumerus 103.363 23.8393 -56.5719
rradius 70.9756
rwrist 2.34711
rhand -48.6859 32.7998
rfingers 7.12502
rthumb -21.3273 3.95336
lclavicle 3.47376e-014 4.52235e-014
lhumerus 70.1898 23.3244 51.0513
lradius 69.7061
lwrist 16.6039
lhand -23.8131 7.29677
lfingers 7.12502
lthumb -177.342 -142.74
rfemur 16.466 -7.69938 25.4437
rtibia 9.90822
rfoot 39.2796 -33.1027
rtoes 27.9895
lfemur -27.679 -18.7665 -10.66
ltibia 27.4613
lfoot 24.4626 -45.2254
ltoes 49.6882
403
root -4.92986 18.0734 -3.77123 -166.31 -5.55375 -173.348
lowerback -12.896 15.4842 11.476
upperback -15.6411 16.844 -0.498429
thorax -6.71005 6.11385 -4.68244
lowerneck -11.3026 -18.8346 -5.09327
upperneck 14.4193 -25.7346 2.76164
head 7.2229 -12.5944 -1.01443
rclavicle 1.16289e-014 8.94531e-016
rhumerus 102.998 23.586 -56.5179
rradius 70.3773
rwrist 1.36404
rhand -48.4371 32.9361
rfingers 7.12502
rthumb -21.0883 4.06284
lclavicle 1.16289e-014 8.94531e-016
lhumerus 69.2489 23.2452 49.0487
lradius 69.3509
lwrist 17.9455
lhand -23.9386 7.77284
lfingers 7.12502
lthumb -177.463 -142.262
rfemur 16.3443 -7.63907 25.4294
rtibia 9.90278
rfoot 38.5118 -33.7537
rtoes 29.1472
lfemur -27.7282 -18.5442 -10.6303
ltibia 27.2418
lfoot 24.6051 -45.1445
ltoes 49.6792
404
root -4.92411 18.0801 -3.76005 -166.279 -5.31357 -173.581
lowerback -12.6862 15.4037 11.3199
upperback -15.585 16.811 -0.517132
thorax -6.78967 6.11879 -4.67897
lowerneck -11.5529 -18.6246 -4.90151
upperneck 14.5782 -25.4368 2.58937
head 7.25809 -12.4463 -1.07761
rclavicle 9.04967e-014 9.69075e-014
rhumerus 102.538 23.4301 -56.623
rradius 69.7715
rwrist 0.509657
rhand -48.2121 32.7968
rfingers 7.12502
rthumb -20.8722 3.89959
lclavicle 9.04967e-014 9.69075e-014
lhumerus 69.1074 22.7361 48.6211
lradius 68.516
lwrist 18.232
lhand -23.4913 7.68677
lfingers 7.12502
lthumb -177.031 -142.354
rfemur 16.3794 -7.58407 25.1172
rtibia 9.84571
rfoot 38.4898 -33.5313
rtoes 28.5717
lfemur -27.6396 -18.4874 -10.9023
ltibia 27.0551
lfoot 24.4771 -45.07
ltoes 49.649
